# xmcd CD database file
#
# Track frame offsets:
#	150
#	2570
#	15180
#	27055
#	42922
#	52585
#	66835
#	79440
#	93180
#	105745
#	118500
#	131657
#	144605
#	155417
#	167330
#	179747
#	192675
#	208575
#	222620
#	235455
#	250052
#	263772
#	276020
#	291880
#	306612
#	321267
#	334992
#
# Disc length: 4655 seconds
#
# Revision: 3
# Processed by: cddbd v1.5PL3 Copyright (c) Steve Scherf et al.
# Submitted via: CDex 1.50beta8
#
DISCID=8c122d1b
DTITLE=南沙織 - CYNTHIA ANTHOLOGY [CD1]
DYEAR=1900
DGENRE=JPop
TTITLE0=シンシアのテーマ
TTITLE1=17才
TTITLE2=島の伝説
TTITLE3=潮風のメロディ
TTITLE4=なぜかしら
TTITLE5=ともだち
TTITLE6=いつか違うひと
TTITLE7=純潔
TTITLE8=素晴らしいひと
TTITLE9=哀愁のページ
TTITLE10=美しい娘たち
TTITLE11=早春の港
TTITLE12=魚たちはどこへ
TTITLE13=傷つく世代
TTITLE14=昨日の街から
TTITLE15=色づく街
TTITLE16=秋の午後
TTITLE17=ひとかけらの純情
TTITLE18=透き通る夕暮れ
TTITLE19=バラのかげり
TTITLE20=この街にひとり
TTITLE21=夏の感情
TTITLE22=愛の序曲
TTITLE23=夜霧の街
TTITLE24=青春が終る日
TTITLE25=女性
TTITLE26=人のあいだ
EXTD=
EXTT0=
EXTT1=
EXTT2=
EXTT3=
EXTT4=
EXTT5=
EXTT6=
EXTT7=
EXTT8=
EXTT9=
EXTT10=
EXTT11=
EXTT12=
EXTT13=
EXTT14=
EXTT15=
EXTT16=
EXTT17=
EXTT18=
EXTT19=
EXTT20=
EXTT21=
EXTT22=
EXTT23=
EXTT24=
EXTT25=
EXTT26=
PLAYORDER=
